<?xml version="1.0" encoding="utf-8"?>
<!-- Generator: Adobe Illustrator 18.0.0, SVG Export Plug-In . SVG Version: 6.00 Build 0)  -->
<!DOCTYPE svg PUBLIC "-//W3C//DTD SVG 1.1//EN" "http://www.w3.org/Graphics/SVG/1.1/DTD/svg11.dtd">
<svg version="1.1" id="Layer_1" xmlns="http://www.w3.org/2000/svg" xmlns:xlink="http://www.w3.org/1999/xlink" x="0px" y="0px"
	 viewBox="0 0 73 60" enable-background="new 0 0 73 60" xml:space="preserve">
<g>
	<g>
		<polygon fill="#F68A21" points="6.6,0 8.3,4.6 12.6,4.6 9.1,7.3 10.4,12 6.6,9.2 2.9,12 4.2,7.3 0.6,4.6 5,4.6 		"/>
	</g>
	<g>
		<polygon fill="#F68A21" points="6.6,12 8.3,16.6 12.6,16.6 9.1,19.3 10.4,24 6.6,21.2 2.9,24 4.2,19.3 0.6,16.6 5,16.6 		"/>
	</g>
	<g>
		<polygon fill="#F68A21" points="21.6,12 23.3,16.6 27.6,16.6 24.1,19.3 25.4,24 21.6,21.2 17.9,24 19.2,19.3 15.6,16.6 20,16.6 		
			"/>
	</g>
	<g>
		<polygon fill="#F68A21" points="6.6,24 8.3,28.6 12.6,28.6 9.1,31.3 10.4,36 6.6,33.2 2.9,36 4.2,31.3 0.6,28.6 5,28.6 		"/>
	</g>
	<g>
		<polygon fill="#F68A21" points="21.6,24 23.3,28.6 27.6,28.6 24.1,31.3 25.4,36 21.6,33.2 17.9,36 19.2,31.3 15.6,28.6 20,28.6 		
			"/>
	</g>
	<g>
		<polygon fill="#F68A21" points="6.6,36 8.3,40.6 12.6,40.6 9.1,43.3 10.4,48 6.6,45.2 2.9,48 4.2,43.3 0.6,40.6 5,40.6 		"/>
	</g>
	<g>
		<polygon fill="#F68A21" points="21.6,36 23.3,40.6 27.6,40.6 24.1,43.3 25.4,48 21.6,45.2 17.9,48 19.2,43.3 15.6,40.6 20,40.6 		
			"/>
	</g>
	<g>
		<polygon fill="#F68A21" points="6.6,48 8.3,52.6 12.6,52.6 9.1,55.3 10.4,60 6.6,57.2 2.9,60 4.2,55.3 0.6,52.6 5,52.6 		"/>
	</g>
	<g>
		<polygon fill="#F68A21" points="21.6,48 23.3,52.6 27.6,52.6 24.1,55.3 25.4,60 21.6,57.2 17.9,60 19.2,55.3 15.6,52.6 20,52.6 		
			"/>
	</g>
	<g>
		<polygon fill="#F68A21" points="36.6,24 38.3,28.6 42.6,28.6 39.1,31.3 40.4,36 36.6,33.2 32.9,36 34.2,31.3 30.6,28.6 35,28.6 		
			"/>
	</g>
	<g>
		<polygon fill="#F68A21" points="36.6,36 38.3,40.6 42.6,40.6 39.1,43.3 40.4,48 36.6,45.2 32.9,48 34.2,43.3 30.6,40.6 35,40.6 		
			"/>
	</g>
	<g>
		<polygon fill="#F68A21" points="36.6,48 38.3,52.6 42.6,52.6 39.1,55.3 40.4,60 36.6,57.2 32.9,60 34.2,55.3 30.6,52.6 35,52.6 		
			"/>
	</g>
	<g>
		<polygon fill="#F68A21" points="51.6,36 53.3,40.6 57.6,40.6 54.1,43.3 55.4,48 51.6,45.2 47.9,48 49.2,43.3 45.6,40.6 50,40.6 		
			"/>
	</g>
	<g>
		<polygon fill="#F68A21" points="51.6,48 53.3,52.6 57.6,52.6 54.1,55.3 55.4,60 51.6,57.2 47.9,60 49.2,55.3 45.6,52.6 50,52.6 		
			"/>
	</g>
	<g>
		<polygon fill="#F68A21" points="66.6,48 68.3,52.6 72.6,52.6 69.1,55.3 70.4,60 66.6,57.2 62.9,60 64.2,55.3 60.6,52.6 65,52.6 		
			"/>
	</g>
</g>
</svg>
