<?xml version="1.0" encoding="UTF-8"?>
<!DOCTYPE svg PUBLIC "-//W3C//DTD SVG 1.1//EN" "http://www.w3.org/Graphics/SVG/1.1/DTD/svg11.dtd">
<!-- Creator: CorelDRAW X7 -->
<svg xmlns="http://www.w3.org/2000/svg" xml:space="preserve" width="45.2709mm" height="8.9176mm" version="1.1" style="shape-rendering:geometricPrecision; text-rendering:geometricPrecision; image-rendering:optimizeQuality; fill-rule:evenodd; clip-rule:evenodd"
viewBox="0 0 927598 182721"
 xmlns:xlink="http://www.w3.org/1999/xlink">
 <defs>
  <style type="text/css">
   <![CDATA[
    .fil1 {fill:#626366}
    .fil0 {fill:#8BC53E}
    .fil2 {fill:#909299}
    .fil3 {fill:#626366;fill-rule:nonzero}
    .fil4 {fill:#8BC53E;fill-rule:nonzero}
   ]]>
  </style>
 </defs>
 <g id="Layer_x0020_1">
  <metadata id="CorelCorpID_0Corel-Layer"/>
  <g id="_600461693520">
   <path class="fil0" d="M115385 0l-110199 35861c-1928,630 -3770,1300 -5186,2058 3600,-713 6108,-86 10653,1377 32323,10396 64637,20817 96962,31214 3176,1020 5854,2260 7770,4143 1914,-1883 4594,-3123 7770,-4143 32323,-10397 64637,-20818 96960,-31214 4545,-1463 7055,-2090 10653,-1377 -1414,-758 -3258,-1428 -5186,-2058l-110197 -35861z"/>
   <path class="fil1" d="M218525 46971c-31061,10110 -62103,20291 -93198,30294 -3801,1224 -6039,1992 -6039,6006 0,32206 0,64412 0,96618 0,4180 3598,2779 6784,1754 32350,-10405 64622,-21057 96963,-31460 3801,-1223 6038,-1992 6038,-6006l0 -11163 0 -12543c0,-4180 -3598,-2779 -6784,-1754 -1375,442 -2733,866 -4127,1319 -20287,6602 -40578,13190 -60865,19791 -5204,1810 -6061,-502 -6010,-4602l0 -30919c119,-3731 2338,-4491 6033,-5680 21172,-6809 42356,-13794 63525,-20684l2190 -703c3801,-1223 6038,-1992 6038,-6006l0 -11163 0 -12544c0,-4182 -3598,-2778 -6784,-1754 -1225,394 -2504,789 -3764,1199z"/>
   <path class="fil2" d="M104695 108732l-32255 -10376 0 69696c0,4102 -1490,5455 -5268,4238l-23072 -7420c-2757,-887 -3366,-2920 -3366,-6499l0 -70213c-10995,-3537 -22031,-7112 -33001,-10643 -3801,-1221 -6038,-1989 -6038,-6003l0 -11163 0 -12544c0,-4182 3598,-2780 6784,-1754 32323,10399 64639,20818 96962,31214 3801,1224 6039,1992 6039,6006l0 11161 0 12544c0,4182 -3598,2780 -6785,1756z"/>
   <path class="fil3" d="M296516 33712l0 16257 26481 0 0 51856 18230 0 0 -44933c0,-6097 -6458,-5294 -12987,-6923l12987 0 26481 0 0 -16257 -71192 0z"/>
   <path class="fil3" d="M390085 67830c0,-12442 8868,-20324 20199,-20324 11210,0 20076,7882 20076,20324 0,12439 -8866,20322 -20076,20322 -11331,0 -20199,-7883 -20199,-20322zm58505 0c0,-21310 -17982,-35720 -38306,-35720 -20322,0 -38306,14410 -38306,35720 0,21307 17984,35718 38306,35718 20324,0 38306,-14411 38306,-35718z"/>
   <path class="fil3" d="M616101 33712l0 68113 63064 0 0 -16382 -44959 0 -12984 0c6243,-1557 12984,-902 12984,-6735l0 -44996 -18105 0z"/>
   <path class="fil4" d="M758363 51448c-7022,-12810 -18722,-19338 -35226,-19338 -21556,0 -38306,13796 -38306,35720 0,22047 16381,35718 38306,35718 16258,0 28204,-6405 35103,-19336l-14042 -7885c-4680,7268 -10962,11210 -21309,11210 -11823,0 -20076,-7759 -20076,-19707 0,-12071 8005,-19707 20076,-19707 10470,0 16381,3940 21432,11331l14042 -8006z"/>
   <path class="fil4" d="M856651 33712l0 68113 17861 0 0 -35577c0,-4450 -9249,-4631 -12986,-5563 9437,0 13121,4 17039,4575l13560 15300 0 -139 18968 21404 16505 0 0 -68113 -17859 0 0 35575c0,4450 9247,4630 12986,5563 -9438,0 -13122,-4 -17041,-4574l-13559 -15299 0 137 -18969 -21402 -16505 0z"/>
   <path class="fil3" d="M452737 33712l0 16257 26481 0 0 51856 18230 0 0 -44933c0,-6097 -6458,-5294 -12986,-6923l12986 0 26482 0 0 -16257 -71193 0z"/>
   <path class="fil4" d="M808053 53415l8938 22666 -24018 0 8308 -20109c2234,-5407 -4227,-4573 -10456,-6126 6344,0 15275,-1379 17228,3569zm-15818 -19703l-29561 68113 19459 0 4191 -9977 37689 0 4311 9977 19213 0 -28944 -68113 -26358 0z"/>
   <path class="fil3" d="M333533 122452c-3510,0 -7022,0 -10536,0l0 31161c3514,0 7026,0 10536,0 10892,0 15960,-8007 15781,-15937 -176,-7659 -5245,-15224 -15781,-15224zm0 2266c8981,0 13249,6454 13382,12958 133,6684 -4135,13626 -13382,13626l-8134 0 0 -26584 8134 0zm22984 6846l0 22049 -2179 0 0 -22049 2179 0zm-2801 -7067c0,2311 3512,2311 3512,0 0,-2314 -3512,-2314 -3512,0zm24538 8757c-1688,-1201 -4001,-2002 -6222,-2002 -5691,0 -10315,3869 -10315,10715 0,5868 3957,10624 10315,10624 4089,0 8312,1868 8312,6579 0,4667 -3911,6624 -8312,6624 -4402,0 -8225,-2133 -8225,-6624l-2178 0c0,5557 4579,8757 10403,8757 5823,0 10445,-2844 10445,-8757 0,-3778 -2133,-6489 -6001,-7868 3645,-1646 5913,-5512 5913,-9335 0,-3558 -1155,-5779 -2711,-7469l2133 -2490 -1424 -1243 -2133 2489zm-6222 176c4534,0 8222,2980 8222,8537 0,4534 -3688,8445 -8222,8445 -5025,0 -8135,-3911 -8135,-8445 0,-5736 3645,-8537 8135,-8537zm17025 -1866l0 22049 -2178 0 0 -22049 2178 0zm-2801 -7067c0,2311 3512,2311 3512,0 0,-2314 -3512,-2314 -3512,0zm11915 754l0 6403 -4668 0 0 1821 4668 0 0 13382c0,4312 1510,7067 6177,7067 1379,0 2758,-444 4135,-1110l-756 -1779c-1111,533 -2311,890 -3379,890 -3422,0 -4044,-2090 -4044,-5068l0 -13382 7468 0 0 -1821 -7468 0 0 -6624 -2133 221zm33562 6403l0 4801c-1824,-3424 -5424,-5069 -8981,-5069 -6134,0 -11156,4536 -11156,11246 0,6715 5022,11338 11156,11338 3557,0 6848,-1601 8981,-5025l0 4668 2178 0c0,-7333 0,-14624 0,-21959l-2178 0zm-8981 1821c12227,0 12227,18359 0,18359 -4979,0 -8978,-3688 -8978,-9202 0,-5511 3999,-9157 8978,-9157zm17073 -11023l0 31161 2178 0 0 -31161 -2178 0zm31650 29473c-5024,0 -8890,-3869 -8890,-9247 0,-5379 3778,-9248 8890,-9248 4979,0 8979,3025 8979,9202 0,6180 -4000,9293 -8979,9293zm-9069 10845l0 -14224c1867,3645 5334,5469 9069,5469 6180,0 11159,-4002 11159,-11383 0,-7067 -4713,-11068 -10671,-11290 -4266,0 -7778,2179 -9511,5512l0 -5200 -2135 0 0 31116 2089 0zm25562 -31116l0 21959 2178 0 0 -12802c0,-4002 3155,-7290 7245,-7336 1289,0 2580,312 3735,1023l978 -1777c-1467,-891 -3068,-1335 -4713,-1290 -2799,0 -5911,1155 -7290,4134l-88 -3911 -2045 0zm27561 22270c6179,0 11158,-4268 11158,-11246 0,-6979 -4979,-11426 -11158,-11426 -6180,0 -11159,4447 -11159,11426 0,6978 4979,11246 11159,11246zm0 -2133c-4979,0 -9024,-3423 -9024,-9113 0,-5691 4045,-9381 9024,-9381 4979,0 9023,3690 9023,9381 0,5690 -4044,9113 -9023,9113zm26094 -18404c5069,0 8980,3734 8980,9202 0,5467 -3823,9245 -8980,9245 -4934,0 -8979,-3110 -8979,-9202 0,-6177 4045,-9245 8979,-9245zm9025 -10935l0 14003c-1778,-3557 -5335,-5158 -9114,-5158 -6134,0 -11023,4090 -11023,11335 0,7293 4844,11338 10978,11338 3736,0 7336,-1867 9159,-5203l0 4846 2133 0 0 -31161 -2133 0zm27740 31161l0 -22004 -2180 0 0 12224c0,4535 -3156,7958 -7690,8001 -4756,46 -7823,-2622 -7823,-7601l0 -12624 -2178 0 0 12669c0,6089 4044,9692 9913,9692 3067,-46 6134,-1289 7823,-4314l0 3957 2135 0zm22270 -4534c-1778,1778 -4178,2712 -6534,2712 -4979,0 -9157,-3245 -9157,-9159 0,-5911 4178,-9157 9157,-9157 2356,0 4801,847 6579,2623l1422 -1377c-2223,-2178 -5112,-3290 -8001,-3290 -6358,0 -11292,4268 -11292,11201 0,6936 5112,11204 11292,11204 2889,0 5778,-1067 8001,-3290l-1467 -1467zm8803 -23828l0 6403 -4668 0 0 1821 4668 0 0 13382c0,4312 1512,7067 6179,7067 1377,0 2756,-444 4133,-1110l-756 -1779c-1110,533 -2311,890 -3377,890 -3423,0 -4046,-2090 -4046,-5068l0 -13382 7468 0 0 -1821 -7468 0 0 -6624 -2133 221zm16803 6313l0 22049 -2178 0 0 -22049 2178 0zm-2801 -7067c0,2311 3512,2311 3512,0 0,-2314 -3512,-2314 -3512,0zm19650 29427c6178,0 11157,-4268 11157,-11246 0,-6979 -4979,-11426 -11157,-11426 -6179,0 -11159,4447 -11159,11426 0,6978 4980,11246 11159,11246zm0 -2133c-4979,0 -9026,-3423 -9026,-9113 0,-5691 4047,-9381 9026,-9381 4977,0 9024,3690 9024,9381 0,5690 -4047,9113 -9024,9113zm16181 -20137l0 21959 2178 0 0 -12224c0,-4535 3156,-7959 7690,-8002 4758,-45 7825,2623 7825,7602l0 12624 2178 0 0 -12669c0,-6090 -4046,-9692 -9915,-9692 -3065,45 -6132,1291 -7823,4313l0 -3911 -2133 0z"/>
   <path class="fil3" d="M566534 53415l8940 22666 -24018 0 8308 -20109c2232,-5407 -4227,-4573 -10456,-6126 6344,0 15276,-1379 17226,3569zm-15818 -19703l-29561 68113 19459 0 4191 -9977 37689 0 4311 9977 19215 0 -28946 -68113 -26358 0z"/>
  </g>
 </g>
</svg>
